<?xml version="1.0" encoding="utf-8"?>
<!-- Generator: Adobe Illustrator 15.0.0, SVG Export Plug-In . SVG Version: 6.00 Build 0)  -->
<!DOCTYPE svg PUBLIC "-//W3C//DTD SVG 1.1//EN" "http://www.w3.org/Graphics/SVG/1.1/DTD/svg11.dtd">
<svg version="1.1" id="Layer_1" xmlns="http://www.w3.org/2000/svg" xmlns:xlink="http://www.w3.org/1999/xlink" x="0px" y="0px"
	 width="26px" height="26px" viewBox="0 0 26 26" enable-background="new 0 0 26 26" xml:space="preserve">
<path d="M20.768,12.537l-3.146-2.602c0,0-0.372-0.395-0.372,0.035c0,0.428,0,1.466,0,1.466s-0.253,0-0.639,0
	c-0.654,0-4.707,0-5.56,0c-0.146-0.218-0.323-0.419-0.546-0.583c-1.039-0.767-2.501-0.545-3.268,0.493
	c-0.767,1.039-0.545,2.502,0.494,3.268C8.77,15.38,10.233,15.158,11,14.12c0.023-0.034,0.039-0.071,0.062-0.106
	c0.854,0,4.9,0,5.522,0c0.347,0,0.573-0.001,0.573-0.001s0,0.833-0.001,1.355c0,0.521,0.391,0.128,0.391,0.128
	s2.938-2.213,3.247-2.522C21.018,12.75,20.768,12.537,20.768,12.537z"/>
</svg>
